<svg xmlns="http://www.w3.org/2000/svg" viewBox="0 0 1404.00 1404.00">
  <path fill="#791d26" fill-rule="evenodd" d="M 666.71 979.50 C 666.31 977.98, 665.35 977.50, 662.65 977.50 C 660.71 977.50, 658.84 977.05, 658.50 976.50 C 658.16 975.95, 656.80 975.50, 655.49 975.50 C 654.17 975.50, 651.84 974.99, 650.30 974.38 C 648.76 973.76, 646.60 972.88, 645.50 972.43 C 644.40 971.98, 641.95 971.31, 640.07 970.94 C 635.73 970.08, 612.72 958.30, 607.81 954.42 C 605.78 952.81, 603.75 951.50, 603.29 951.50 C 602.15 951.50, 578.00 927.19, 578.00 926.04 C 578.00 925.53, 576.92 923.96, 575.61 922.55 C 572.26 918.98, 558.34 892.74, 557.54 888.50 C 557.18 886.58, 556.52 884.10, 556.07 883.00 C 553.40 876.46, 553.00 875.19, 553.00 873.15 C 553.00 871.91, 552.60 870.47, 552.10 869.95 C 551.16 868.95, 550.53 865.26, 549.05 852.00 C 548.56 847.60, 548.12 827.10, 548.08 806.45 C 548.04 785.60, 547.60 768.48, 547.10 767.95 C 546.60 767.43, 545.97 764.98, 545.69 762.50 C 544.72 753.92, 544.48 753.18, 538.52 739.50 C 535.60 732.80, 533.41 729.56, 528.16 724.20 C 521.06 716.95, 520.52 716.56, 511.41 712.11 C 508.16 710.53, 504.75 708.86, 503.84 708.41 C 502.92 707.96, 499.77 707.31, 496.84 706.97 C 493.90 706.63, 490.60 705.92, 489.50 705.40 C 488.30 704.84, 467.27 704.57, 437.00 704.73 L 386.50 705.00 L 386.50 760.50 L 386.50 816.00 L 442.00 815.95 C 494.00 815.90, 500.36 815.65, 505.50 813.52 C 506.60 813.06, 509.47 811.95, 511.89 811.05 C 516.77 809.22, 523.49 804.86, 526.40 801.62 C 529.61 798.06, 529.88 798.98, 530.41 814.75 C 530.96 831.24, 532.29 849.56, 533.82 861.50 C 534.65 868.03, 534.56 869.13, 533.14 869.98 C 530.44 871.59, 524.65 873.47, 522.31 873.48 C 521.10 873.49, 519.87 873.90, 519.57 874.39 C 518.91 875.45, 513.72 876.45, 505.50 877.11 C 502.20 877.37, 498.60 878.02, 497.50 878.55 C 496.30 879.13, 473.60 879.62, 441.00 879.76 L 386.50 880.00 L 386.24 926.41 C 386.06 958.65, 385.64 973.23, 384.87 974.16 C 383.98 975.23, 376.65 975.50, 347.88 975.50 L 312.00 975.50 L 312.00 808.50 L 312.00 641.50 L 399.80 641.50 C 452.55 641.50, 487.98 641.87, 488.55 642.43 C 489.07 642.94, 493.32 643.57, 498.00 643.82 C 511.14 644.54, 525.78 647.35, 528.45 649.67 C 528.97 650.13, 530.55 650.50, 531.95 650.50 C 533.35 650.51, 535.97 651.41, 537.77 652.50 C 539.57 653.60, 541.64 654.50, 542.36 654.50 C 544.15 654.50, 558.08 661.32, 560.26 663.25 C 562.08 664.88, 565.07 666.74, 568.50 668.36 C 569.60 668.88, 572.28 671.15, 574.45 673.41 C 576.63 675.66, 578.91 677.50, 579.52 677.50 C 580.14 677.50, 582.41 679.59, 584.57 682.13 C 586.73 684.68, 589.74 688.23, 591.25 690.02 C 592.76 691.80, 594.00 693.71, 594.00 694.26 C 594.00 694.81, 594.72 695.85, 595.60 696.59 C 596.49 697.32, 597.61 698.84, 598.10 699.96 C 598.59 701.08, 599.45 702.67, 600.01 703.50 C 602.78 707.60, 609.00 719.97, 609.01 721.39 C 609.01 722.27, 609.59 724.12, 610.29 725.50 C 610.99 726.88, 612.16 730.02, 612.89 732.50 C 613.61 734.98, 614.61 738.03, 615.10 739.30 C 615.60 740.56, 616.00 742.61, 616.00 743.85 C 616.00 745.09, 616.56 746.66, 617.25 747.35 C 618.20 748.30, 618.57 759.30, 618.79 793.80 C 618.95 818.66, 619.49 839.90, 619.99 841.00 C 620.49 842.10, 621.10 845.02, 621.36 847.50 C 621.91 852.80, 622.83 857.22, 623.97 860.00 C 624.43 861.10, 625.35 863.58, 626.02 865.50 C 629.54 875.63, 633.35 883.01, 637.14 887.05 C 638.71 888.72, 640.00 890.54, 640.00 891.09 C 640.00 892.19, 649.17 901.50, 650.26 901.50 C 650.65 901.50, 653.33 903.30, 656.23 905.50 C 659.13 907.69, 662.01 909.49, 662.64 909.50 C 663.26 909.50, 665.06 910.17, 666.64 910.99 C 668.21 911.82, 670.44 912.49, 671.58 912.49 C 672.73 912.50, 673.98 912.81, 674.35 913.19 C 676.08 914.91, 683.09 916.47, 689.19 916.48 C 692.87 916.49, 696.16 916.95, 696.50 917.50 C 696.84 918.05, 698.86 918.50, 701.00 918.50 C 703.14 918.50, 705.16 918.05, 705.50 917.50 C 705.84 916.95, 709.66 916.50, 714.00 916.50 C 718.34 916.50, 722.16 916.05, 722.50 915.50 C 722.84 914.95, 724.41 914.50, 726.00 914.50 C 727.59 914.50, 729.16 914.05, 729.50 913.50 C 729.84 912.95, 731.07 912.50, 732.24 912.50 C 734.99 912.50, 747.74 905.98, 751.05 902.89 C 752.46 901.57, 754.06 900.50, 754.60 900.50 C 755.83 900.50, 763.00 893.25, 763.00 892.01 C 763.00 891.52, 764.06 889.96, 765.36 888.55 C 768.71 884.92, 775.33 871.66, 778.12 863.00 C 778.83 860.80, 779.77 858.57, 780.20 858.05 C 780.64 857.53, 781.00 855.42, 781.00 853.36 C 781.00 851.30, 781.45 849.34, 782.00 849.00 C 782.55 848.66, 783.00 844.84, 783.00 840.50 C 783.00 836.11, 783.46 832.33, 784.04 831.97 C 784.73 831.55, 785.04 822.29, 784.95 804.84 C 784.88 790.27, 785.08 778.09, 785.41 777.76 C 785.73 777.43, 786.00 775.02, 786.00 772.39 C 786.00 769.77, 786.45 767.34, 787.00 767.00 C 787.55 766.66, 788.00 764.83, 788.00 762.93 C 788.00 761.03, 788.44 758.69, 788.97 757.74 C 790.29 755.37, 793.00 746.77, 793.00 744.95 C 793.00 744.14, 793.38 742.69, 793.84 741.74 C 794.29 740.78, 796.49 736.17, 798.71 731.50 C 806.88 714.34, 808.55 711.24, 810.93 708.85 C 813.30 706.47, 814.93 704.04, 816.88 700.00 C 818.03 697.60, 841.82 673.84, 844.74 672.17 C 845.86 671.53, 851.06 667.96, 856.29 664.25 C 861.51 660.54, 866.13 657.50, 866.54 657.50 C 867.34 657.50, 874.42 654.33, 884.50 649.47 C 887.80 647.88, 892.19 646.28, 894.26 645.92 C 896.33 645.57, 898.27 644.87, 898.57 644.39 C 898.87 643.90, 900.64 643.50, 902.50 643.50 C 904.36 643.50, 906.16 643.05, 906.50 642.50 C 906.84 641.95, 908.41 641.50, 910.00 641.50 C 911.59 641.50, 913.16 641.05, 913.50 640.50 C 913.84 639.95, 916.25 639.50, 918.86 639.50 C 921.47 639.50, 924.16 638.94, 924.85 638.25 C 925.80 637.30, 933.61 637.00, 957.00 637.00 C 980.39 637.00, 988.20 637.30, 989.15 638.25 C 989.84 638.94, 992.53 639.50, 995.14 639.50 C 997.75 639.50, 1000.13 639.90, 1000.43 640.39 C 1000.73 640.88, 1002.45 641.53, 1004.24 641.84 C 1011.86 643.16, 1014.56 643.79, 1015.50 644.50 C 1016.05 644.90, 1018.28 645.56, 1020.46 645.96 C 1022.65 646.35, 1026.92 647.92, 1029.96 649.44 C 1039.87 654.41, 1046.68 657.50, 1047.69 657.50 C 1048.24 657.50, 1049.50 658.40, 1050.50 659.50 C 1051.50 660.60, 1052.85 661.50, 1053.50 661.50 C 1054.15 661.50, 1055.50 662.40, 1056.50 663.50 C 1057.50 664.60, 1058.67 665.50, 1059.11 665.50 C 1061.18 665.50, 1078.01 678.63, 1085.07 685.75 C 1086.57 687.26, 1088.75 688.50, 1089.90 688.50 C 1091.10 688.50, 1092.00 689.14, 1092.00 690.00 C 1092.00 690.83, 1091.33 691.50, 1090.51 691.50 C 1089.69 691.50, 1079.99 700.52, 1068.95 711.55 C 1043.91 736.57, 1043.77 736.66, 1038.86 731.87 C 1036.84 729.89, 1034.30 727.77, 1033.21 727.14 C 1032.13 726.51, 1028.60 723.98, 1025.37 721.52 C 1018.53 716.29, 1003.08 708.32, 995.08 705.88 C 992.01 704.95, 989.07 703.81, 988.55 703.34 C 988.03 702.88, 985.98 702.50, 984.00 702.50 C 982.02 702.50, 979.93 702.03, 979.36 701.46 C 977.16 699.26, 930.89 701.25, 929.43 703.61 C 929.13 704.10, 927.81 704.50, 926.50 704.50 C 925.19 704.50, 923.86 704.91, 923.55 705.41 C 923.24 705.92, 921.11 706.64, 918.81 707.03 C 916.52 707.42, 913.26 708.52, 911.57 709.47 C 888.10 722.71, 869.63 743.42, 863.38 763.50 C 862.44 766.52, 861.35 769.45, 860.96 770.00 C 860.20 771.07, 859.22 775.56, 858.34 782.00 C 858.04 784.20, 857.39 786.43, 856.90 786.95 C 856.40 787.47, 855.96 796.92, 855.91 807.95 C 855.81 829.39, 854.76 847.58, 853.08 856.50 C 852.52 859.52, 851.79 863.80, 851.46 866.00 C 851.14 868.20, 850.51 870.90, 850.06 872.00 C 849.62 873.10, 848.74 875.26, 848.12 876.80 C 847.51 878.34, 847.00 880.52, 847.00 881.65 C 847.00 883.61, 846.20 885.76, 841.92 895.28 C 840.86 897.63, 840.00 900.16, 840.00 900.90 C 840.00 901.65, 839.32 902.82, 838.49 903.51 C 837.66 904.20, 836.11 906.71, 835.06 909.10 C 834.00 911.48, 831.76 915.44, 830.07 917.90 C 828.38 920.35, 827.00 922.75, 827.00 923.22 C 827.00 923.70, 824.98 926.07, 822.50 928.50 C 820.02 930.93, 818.00 933.40, 818.00 934.00 C 818.00 935.36, 808.78 944.50, 807.41 944.50 C 806.85 944.50, 804.87 946.08, 803.00 948.00 C 801.13 949.92, 799.11 951.50, 798.49 951.50 C 797.88 951.50, 796.11 952.82, 794.57 954.43 C 793.03 956.04, 789.59 958.29, 786.94 959.43 C 784.29 960.57, 781.84 961.94, 781.51 962.48 C 781.18 963.01, 779.25 964.17, 777.21 965.05 C 775.17 965.93, 771.13 967.74, 768.23 969.07 C 765.33 970.41, 762.09 971.50, 761.04 971.50 C 759.98 971.50, 758.84 971.95, 758.50 972.50 C 758.16 973.05, 756.90 973.51, 755.69 973.52 C 753.30 973.53, 746.45 975.72, 745.35 976.81 C 744.98 977.19, 743.12 977.50, 741.24 977.50 C 738.65 977.50, 737.68 977.99, 737.29 979.50 C 736.78 981.45, 735.93 981.50, 702.00 981.50 C 668.07 981.50, 667.22 981.45, 666.71 979.50 Z M 920.74 979.62 C 920.40 978.33, 919.02 977.55, 916.37 977.16 C 907.58 975.84, 904.95 975.23, 904.43 974.39 C 904.13 973.90, 902.90 973.49, 901.69 973.49 C 899.70 973.47, 893.59 971.69, 888.50 969.64 C 887.40 969.20, 882.21 966.73, 876.96 964.17 C 871.71 961.60, 867.07 959.50, 866.65 959.50 C 866.23 959.50, 863.10 957.59, 859.70 955.26 C 856.29 952.92, 852.58 950.52, 851.45 949.92 C 849.22 948.73, 846.69 946.76, 840.86 941.65 C 836.57 937.89, 836.70 936.76, 842.01 931.00 C 843.53 929.35, 845.11 926.88, 845.50 925.50 C 845.90 924.12, 847.03 922.10, 848.00 921.00 C 850.54 918.12, 856.99 905.22, 857.03 902.94 C 857.05 901.87, 857.70 900.16, 858.47 899.14 C 859.25 898.11, 860.66 894.74, 861.61 891.64 C 862.55 888.54, 863.70 885.50, 864.16 884.90 C 864.62 884.29, 865.29 881.03, 865.64 877.65 C 866.74 867.18, 868.84 867.42, 877.49 879.00 C 881.90 884.91, 897.84 900.32, 900.34 901.09 C 901.53 901.46, 903.62 902.55, 905.00 903.51 C 909.53 906.69, 915.03 909.50, 916.78 909.53 C 917.73 909.55, 919.37 910.22, 920.44 911.03 C 921.51 911.84, 923.39 912.50, 924.63 912.50 C 925.87 912.50, 927.13 912.90, 927.43 913.39 C 927.97 914.27, 929.16 914.53, 942.00 916.65 C 953.24 918.50, 979.28 917.82, 984.50 915.53 C 985.60 915.05, 987.85 914.37, 989.50 914.03 C 998.97 912.08, 1001.52 911.38, 1002.41 910.49 C 1002.95 909.95, 1004.15 909.50, 1005.06 909.50 C 1006.41 909.50, 1015.27 905.13, 1023.00 900.65 C 1024.28 899.91, 1024.50 895.69, 1024.50 872.39 L 1024.50 845.00 L 988.50 844.50 L 952.50 844.00 L 952.23 815.12 C 952.05 794.65, 952.30 785.84, 953.11 784.87 C 954.42 783.29, 961.58 783.01, 962.50 784.50 C 962.90 785.15, 985.68 785.50, 1027.56 785.50 L 1092.00 785.50 L 1092.00 859.50 C 1092.00 922.51, 1091.79 933.50, 1090.59 933.50 C 1089.81 933.50, 1087.25 935.52, 1084.89 938.00 C 1082.53 940.48, 1080.10 942.50, 1079.48 942.50 C 1078.86 942.50, 1077.26 943.67, 1075.92 945.11 C 1074.59 946.54, 1072.60 948.13, 1071.50 948.65 C 1068.18 950.21, 1065.11 952.09, 1063.26 953.72 C 1061.74 955.06, 1037.15 967.30, 1031.50 969.54 C 1029.36 970.38, 1022.11 972.32, 1018.00 973.15 C 1016.62 973.42, 1014.60 974.03, 1013.50 974.50 C 1011.12 975.51, 1006.93 976.46, 1001.63 977.20 C 998.95 977.57, 997.60 978.32, 997.26 979.62 C 996.79 981.42, 995.14 981.50, 959.00 981.50 C 922.86 981.50, 921.21 981.42, 920.74 979.62 Z M 680.58 703.63 C 680.28 703.15, 678.70 702.49, 677.06 702.16 C 671.26 701.00, 665.86 694.50, 661.57 683.50 C 658.24 674.96, 637.15 650.77, 626.95 643.79 C 625.60 642.87, 624.27 641.86, 624.00 641.55 C 619.15 636.09, 584.40 619.38, 566.50 613.91 C 561.55 612.39, 557.05 610.84, 556.50 610.45 C 555.95 610.07, 554.04 609.47, 552.25 609.13 C 550.46 608.78, 547.54 608.22, 545.75 607.87 C 543.96 607.53, 542.02 606.87, 541.43 606.40 C 540.83 605.93, 537.11 605.25, 533.14 604.88 C 529.18 604.51, 525.70 603.82, 525.41 603.35 C 525.12 602.88, 522.69 602.50, 520.00 602.50 C 517.31 602.50, 514.84 602.05, 514.50 601.50 C 514.16 600.95, 511.75 600.50, 509.14 600.50 C 506.53 600.50, 503.97 600.08, 503.45 599.58 C 502.42 598.57, 493.29 597.73, 474.50 596.91 C 467.90 596.62, 462.07 595.96, 461.55 595.44 C 461.03 594.92, 455.13 594.50, 448.45 594.50 C 435.06 594.50, 433.80 593.98, 432.68 588.00 C 431.53 581.81, 430.82 578.94, 430.00 577.00 C 429.18 575.06, 428.49 572.26, 427.31 566.00 C 427.00 564.35, 426.41 562.55, 425.99 562.00 C 425.57 561.45, 424.90 558.19, 424.51 554.75 C 424.12 551.31, 423.40 548.25, 422.90 547.94 C 422.41 547.63, 421.99 546.40, 421.98 545.19 C 421.97 542.97, 420.08 536.93, 418.77 534.89 C 418.38 534.28, 418.34 533.49, 418.69 533.14 C 419.66 532.17, 460.80 532.37, 461.40 533.35 C 461.69 533.81, 471.28 534.51, 482.71 534.90 C 494.15 535.29, 503.93 536.03, 504.45 536.55 C 504.97 537.07, 507.98 537.50, 511.14 537.50 C 514.30 537.50, 517.16 537.95, 517.50 538.50 C 517.84 539.05, 520.76 539.50, 524.00 539.50 C 527.24 539.50, 530.16 539.95, 530.50 540.50 C 530.84 541.05, 532.86 541.50, 535.00 541.50 C 537.14 541.50, 539.16 541.95, 539.50 542.50 C 539.84 543.05, 542.09 543.50, 544.50 543.50 C 546.91 543.50, 549.16 543.95, 549.50 544.50 C 549.84 545.05, 551.78 545.52, 553.81 545.54 C 555.84 545.57, 559.30 546.24, 561.50 547.03 C 563.70 547.82, 566.49 548.48, 567.69 548.48 C 568.90 548.49, 570.16 548.95, 570.50 549.50 C 570.84 550.05, 572.10 550.51, 573.31 550.52 C 575.70 550.53, 582.55 552.72, 583.65 553.81 C 584.02 554.19, 585.14 554.50, 586.13 554.50 C 587.88 554.50, 595.48 556.75, 599.50 558.45 C 600.60 558.92, 603.08 559.85, 605.00 560.52 C 606.92 561.19, 610.79 562.81, 613.60 564.12 C 616.40 565.43, 619.23 566.50, 619.88 566.50 C 621.82 566.50, 648.06 580.59, 651.48 583.46 C 653.37 585.06, 656.38 586.89, 659.50 588.35 C 660.60 588.87, 662.59 590.46, 663.92 591.89 C 665.26 593.33, 666.85 594.50, 667.47 594.50 C 668.08 594.50, 670.59 596.54, 673.04 599.04 C 676.66 602.73, 678.07 603.53, 680.50 603.29 C 683.50 603.00, 683.50 603.00, 683.50 556.50 L 683.50 510.00 L 667.50 509.40 C 648.82 508.70, 647.98 508.55, 637.85 504.10 C 635.84 503.22, 633.80 502.50, 633.31 502.50 C 632.18 502.50, 623.16 493.37, 621.65 490.69 C 621.02 489.57, 619.20 486.04, 617.61 482.83 C 616.03 479.62, 614.34 476.22, 613.86 475.26 C 613.39 474.31, 613.00 471.14, 613.00 468.21 C 613.00 465.29, 612.52 462.42, 611.93 461.83 C 611.34 461.24, 611.01 459.02, 611.18 456.88 C 611.50 453.00, 611.50 453.00, 639.20 453.00 C 660.03 453.00, 667.21 453.31, 668.15 454.25 C 668.84 454.94, 670.25 455.50, 671.30 455.50 C 673.17 455.50, 677.66 458.26, 681.44 461.72 C 684.06 464.13, 690.84 464.14, 691.68 461.75 C 693.39 456.89, 696.07 451.69, 697.45 450.54 C 698.30 449.83, 699.00 448.73, 699.00 448.09 C 699.00 446.64, 708.18 437.50, 709.63 437.50 C 710.21 437.50, 711.54 436.56, 712.58 435.42 C 713.61 434.27, 718.18 431.50, 722.73 429.27 C 727.28 427.04, 731.00 424.60, 731.00 423.86 C 731.00 422.74, 736.58 422.50, 762.05 422.50 L 793.11 422.50 L 792.69 435.75 C 792.22 450.49, 791.34 455.83, 788.00 464.00 C 787.55 465.10, 786.45 467.97, 785.55 470.39 C 781.26 481.86, 759.55 503.48, 752.31 503.50 C 751.10 503.50, 749.84 503.95, 749.50 504.50 C 749.16 505.05, 747.81 505.50, 746.50 505.50 C 745.19 505.50, 743.84 505.95, 743.50 506.50 C 743.16 507.05, 741.20 507.50, 739.14 507.50 C 737.08 507.50, 734.97 507.93, 734.45 508.45 C 733.93 508.97, 730.58 509.53, 727.00 509.70 L 720.50 510.00 L 720.50 556.50 C 720.50 603.00, 720.50 603.00, 723.50 603.29 C 725.90 603.53, 727.31 602.77, 730.46 599.54 C 732.63 597.32, 734.91 595.50, 735.52 595.50 C 736.13 595.50, 737.95 594.10, 739.56 592.40 C 741.18 590.69, 743.40 588.87, 744.50 588.36 C 747.64 586.88, 750.63 585.05, 752.52 583.46 C 755.88 580.64, 782.17 566.50, 784.07 566.50 C 784.69 566.50, 786.62 565.89, 788.35 565.15 C 791.19 563.93, 799.29 560.55, 804.50 558.42 C 808.81 556.66, 816.16 554.50, 817.87 554.50 C 818.86 554.50, 819.98 554.19, 820.35 553.81 C 821.45 552.72, 828.30 550.53, 830.69 550.52 C 831.90 550.51, 833.16 550.05, 833.50 549.50 C 833.84 548.95, 835.10 548.49, 836.31 548.48 C 837.51 548.48, 840.30 547.82, 842.50 547.03 C 844.70 546.24, 848.16 545.57, 850.19 545.54 C 852.22 545.52, 854.16 545.05, 854.50 544.50 C 854.84 543.95, 857.09 543.50, 859.50 543.50 C 861.91 543.50, 864.16 543.05, 864.50 542.50 C 864.84 541.95, 866.86 541.50, 869.00 541.50 C 871.14 541.50, 873.16 541.05, 873.50 540.50 C 873.84 539.95, 876.31 539.50, 879.00 539.50 C 881.69 539.50, 884.16 539.05, 884.50 538.50 C 884.84 537.95, 888.15 537.50, 891.86 537.50 C 895.57 537.50, 899.05 537.05, 899.59 536.51 C 900.14 535.96, 909.92 535.22, 921.33 534.85 C 932.74 534.48, 942.31 533.80, 942.60 533.34 C 943.29 532.23, 984.73 532.25, 985.41 533.36 C 985.71 533.83, 985.65 534.52, 985.29 534.88 C 984.21 535.95, 982.03 542.83, 982.02 545.19 C 982.01 546.40, 981.59 547.63, 981.10 547.94 C 980.60 548.25, 979.88 551.31, 979.49 554.75 C 979.10 558.19, 978.43 561.45, 978.01 562.00 C 977.59 562.55, 977.00 564.35, 976.69 566.00 C 975.51 572.26, 974.82 575.06, 974.00 577.00 C 973.18 578.94, 972.47 581.81, 971.32 588.00 C 970.21 593.89, 968.84 594.50, 956.55 594.50 C 950.42 594.50, 944.97 594.92, 944.45 595.44 C 943.93 595.96, 937.65 596.62, 930.50 596.91 C 911.30 597.67, 901.62 598.54, 900.55 599.58 C 900.03 600.08, 897.47 600.50, 894.86 600.50 C 892.25 600.50, 889.84 600.95, 889.50 601.50 C 889.16 602.05, 886.69 602.50, 884.00 602.50 C 881.31 602.50, 878.88 602.88, 878.59 603.35 C 878.30 603.82, 874.82 604.51, 870.86 604.88 C 866.89 605.25, 863.17 605.93, 862.57 606.40 C 861.98 606.87, 860.04 607.53, 858.25 607.87 C 856.46 608.22, 853.54 608.78, 851.75 609.13 C 849.96 609.47, 848.05 610.07, 847.50 610.45 C 846.95 610.84, 842.45 612.39, 837.50 613.91 C 819.60 619.38, 784.85 636.09, 780.00 641.55 C 779.73 641.86, 778.38 642.88, 777.00 643.81 C 772.24 647.04, 754.74 664.99, 750.63 670.86 C 745.49 678.20, 745.89 677.52, 741.42 686.50 C 736.63 696.13, 732.31 701.49, 728.76 702.20 C 727.22 702.51, 725.72 703.15, 725.42 703.63 C 725.12 704.11, 715.04 704.50, 703.00 704.50 C 690.96 704.50, 680.88 704.11, 680.58 703.63 Z"/>
</svg>
